<svg xmlns="http://www.w3.org/2000/svg" viewBox="0 0 200 50" width="200" height="50">
  <!-- Purple ghost/octopus icon -->
  <g transform="translate(5, 2) scale(0.085)">
    <!-- Purple ghost/octopus body -->
    <path d="M0 0 C0.70055511 0.00115814 1.40111023 0.00231628 2.12289429 0.00350952 C12.42651677 0.03716468 22.13236543 0.61246995 32.125 3.3125 C33.47078125 3.60253906 33.47078125 3.60253906 34.84375 3.8984375 C55.65520493 8.7251906 74.59203409 19.9129825 90.125 34.3125 C90.67430176 34.81797363 91.22360352 35.32344727 91.78955078 35.84423828 C100.09243082 43.56902397 106.96803449 51.79540629 113.125 61.3125 C113.76050781 62.28703125 114.39601563 63.2615625 115.05078125 64.265625 C127.19427852 83.97524807 133.27596601 106.38469015 133.27217102 129.42004395 C133.27584771 130.62588276 133.2795244 131.83172158 133.2833125 133.07410097 C133.29239221 136.40405931 133.29703854 139.73396857 133.29970181 143.06393456 C133.3036241 146.66180695 133.31320047 150.25966532 133.32191467 153.85752869 C133.34161689 162.53357317 133.35173378 171.20961872 133.36064246 179.88567996 C133.36503245 183.97502133 133.37039712 188.06436142 133.37563133 192.15370178 C133.39263142 205.7507068 133.40712754 219.34771103 133.41438007 232.94472504 C133.41628981 236.46787009 133.41821018 239.99101513 133.42016602 243.51416016 C133.42064976 244.38976902 133.4211335 245.26537788 133.4216319 246.16752034 C133.42993998 260.36537284 133.45529546 274.5631413 133.48774669 288.76095706 C133.5208141 303.34745072 133.53882823 317.93390162 133.54202431 332.52043295 C133.54418886 340.7064699 133.55293023 348.89238402 133.57848549 357.0783844 C133.60018748 364.04585818 133.60824511 371.01317922 133.59851871 377.98068297 C133.59397357 381.53416669 133.59587256 385.08733518 133.61528015 388.64077568 C133.6361522 392.49563331 133.6259287 396.35005654 133.61274719 400.20495605 C133.62920106 401.88356114 133.62920106 401.88356114 133.64598733 403.59607744 C133.58740315 410.68687002 132.72963065 416.62260655 127.60688573 421.86652327 C122.46027569 426.29758835 118.89973552 426.79076421 112.2421875 426.7109375 C107.37344231 426.08861669 104.14418744 424.16196398 101.125 420.3125 C97.74131896 414.18551526 96.54506243 409.01073727 96.64257812 402.06420898 C96.63866562 401.18817017 96.63475311 400.31213135 96.63072205 399.4095459 C96.62478351 397.52391206 96.62785059 395.63823197 96.6391449 393.7526226 C96.65651636 390.76274887 96.64884043 387.77383264 96.6348877 384.78395081 C96.60963516 378.43923404 96.6150387 372.09474652 96.625 365.75 C96.63654873 358.38970196 96.635306 351.02987312 96.60093689 343.66963387 C96.59387041 340.73362222 96.6104824 337.79836365 96.62805176 334.8624115 C96.62234165 333.05206911 96.61552327 331.24172976 96.60742188 329.43139648 C96.61873642 328.62338089 96.63005096 327.8153653 96.64170837 326.98286438 C96.58154503 321.33302343 95.2683487 317.04177486 92.125 312.3125 C87.0648545 307.49919086 82.69450997 306.88199853 75.91796875 306.98046875 C71.48595357 307.50735167 69.08431166 309.0558587 66.125 312.3125 C62.10233813 318.83566482 61.55358122 324.96147146 61.62670898 332.47265625 C61.62119019 333.55191376 61.61567139 334.63117126 61.60998535 335.74313354 C61.60070248 338.07237942 61.60052926 340.40167606 61.60857964 342.73092651 C61.62125693 346.42251789 61.60987561 350.11336679 61.59254456 353.80493164 C61.56588834 360.31160897 61.5602472 366.81810307 61.56164551 373.3248291 C61.56387692 383.73821336 61.5496754 394.15137096 61.50605965 404.56466675 C61.4962495 408.19240334 61.5049237 411.81978076 61.51475525 415.44750977 C61.50860868 417.68245679 61.50169616 419.91740188 61.49389648 422.15234375 C61.50161575 423.15312958 61.50933502 424.15391541 61.51728821 425.18502808 C61.46424357 432.57752146 60.2929872 438.87362375 56.3125 445.1875 C52.16574013 449.21578102 48.45368196 450.52788796 42.75 450.875 C36.74537726 450.7113863 33.23317352 448.5821742 29.125 444.3125 C26.04934076 440.1454778 25.00298609 436.36658321 24.99369812 431.24078369 C24.98768585 430.03823944 24.98768585 430.03823944 24.98155212 428.81140137 C24.9823452 427.50531921 24.9823452 427.50531921 24.9831543 426.17285156 C24.97967987 425.24877502 24.97620544 424.32469849 24.97262573 423.37261963 C24.96527787 421.36685029 24.95992732 419.36107286 24.95633507 417.35529327 C24.94915987 414.177042 24.9334849 410.99894424 24.91499329 407.82073975 C24.86257602 398.78448601 24.81455992 389.74831655 24.79907227 380.71191406 C24.78897495 375.1828416 24.75960588 369.65415596 24.71775246 364.12523651 C24.7054628 362.02181681 24.70031747 359.91834242 24.70255089 357.814888 C24.7049113 354.86608294 24.68268072 351.91838206 24.6550293 348.96972656 C24.66163071 348.10710205 24.66823212 347.24447754 24.67503357 346.35571289 C24.56761103 339.35103427 22.77212007 333.8917452 17.6875 328.9375 C12.74322306 325.80210487 9.03711068 324.71126841 3.125 325.3125 C-2.69190137 327.22968098 -5.94674159 329.8073742 -8.875 335.3125 C-9.86924289 338.29522866 -10.00199386 340.25149893 -10.00630188 343.36491394 C-10.01031006 344.40924591 -10.01431824 345.45357788 -10.01844788 346.52955627 C-10.01791916 347.6750444 -10.01739044 348.82053253 -10.0168457 350.00073242 C-10.02205734 351.81090851 -10.02205734 351.81090851 -10.02737427 353.65765381 C-10.03473589 356.28333792 -10.040407 358.90897132 -10.04366493 361.53465843 C-10.04958194 365.69154883 -10.06613013 369.84835392 -10.08500671 374.00520325 C-10.09134415 375.42942709 -10.09766978 376.853651 -10.10398388 378.27787495 C-10.10714969 378.99116195 -10.1103155 379.70444896 -10.11357725 380.43935072 C-10.15561345 390.11555777 -10.18861136 399.79172533 -10.20092773 409.46801758 C-10.20932258 415.9963452 -10.23186707 422.52446167 -10.2702834 429.05268365 C-10.28999923 432.50482924 -10.30246376 435.95665951 -10.29744911 439.40886497 C-10.29191577 443.26521456 -10.3172708 447.12103397 -10.3449707 450.97729492 C-10.33506859 452.68034538 -10.33506859 452.68034538 -10.32496643 454.4178009 C-10.42168816 462.62891328 -11.97056736 467.97240247 -17.375 474.1875 C-22.21906187 478.30495259 -25.92716348 478.75819865 -32.1875 478.625 C-37.41984214 478.01658812 -40.03830273 475.14919727 -43.625 471.5625 C-48.44879835 464.59479128 -48.16241207 456.96991559 -48.13037109 448.79101562 C-48.13399155 447.66153 -48.137612 446.53204437 -48.14134216 445.36833191 C-48.14821226 442.92664902 -48.1507461 440.48495085 -48.14939499 438.04325867 C-48.14842673 434.17574742 -48.16140697 430.30851177 -48.17837524 426.44104004 C-48.22456298 415.44883249 -48.24934121 404.45665661 -48.25585938 393.46435547 C-48.26002027 386.73119997 -48.28513004 379.99837521 -48.32118607 373.26530457 C-48.33097627 370.70413452 -48.3333203 368.14292459 -48.32801437 365.58174133 C-48.32093787 361.99884065 -48.33823848 358.41680349 -48.36083984 354.83398438 C-48.35266739 353.78127853 -48.34449493 352.72857269 -48.33607483 351.64396667 C-48.42466648 343.73607941 -50.0987887 338.43573771 -55.375 332.5 C-61.272145 327.33999812 -66.44364713 324.72170886 -74.44140625 324.9375 C-80.61372078 325.88861107 -86.05413711 329.04062455 -90.3125 333.5625 C-96.4373701 341.9569378 -96.29566382 351.06556253 -96.25512505 361.06387329 C-96.24592437 363.54569008 -96.25633888 366.02676578 -96.27174377 368.50854492 C-96.31160098 375.55809549 -96.31304814 382.60758192 -96.31079102 389.65722656 C-96.3107397 393.98606202 -96.33000736 398.31449427 -96.36012459 402.64321899 C-96.3708706 405.07451305 -96.35886979 407.50501174 -96.34629822 409.9362793 C-96.3840203 426.4635527 -96.3840203 426.4635527 -102.35765076 432.91333008 C-107.44566027 437.41944983 -112.23169174 437.84072719 -118.7890625 437.78515625 C-123.03937177 437.13415951 -125.19125186 435.43192565 -128.25390625 432.52734375 C-133.31614975 425.61097732 -133.30398486 419.28266488 -133.25595093 410.96144104 C-133.2606309 409.7171821 -133.26531087 408.47292315 -133.27013266 407.19095939 C-133.28001166 403.74860882 -133.27647873 400.30675094 -133.26717401 396.86443055 C-133.26037748 393.14708604 -133.27086816 389.42978413 -133.27911377 385.71244812 C-133.2924504 378.43215183 -133.28957265 371.15194836 -133.28087585 363.87164844 C-133.27409476 357.94898508 -133.27318444 352.02634769 -133.2764473 346.10368156 C-133.276907 345.25998902 -133.27736669 344.41629648 -133.27784032 343.54703749 C-133.27879954 341.83285792 -133.27977218 340.11867836 -133.2807581 338.40449881 C-133.289313 322.32885378 -133.27947873 306.25326006 -133.263357 290.17762344 C-133.24997564 276.40916133 -133.25226367 262.64077517 -133.26611328 248.87231445 C-133.2822052 232.86729954 -133.28846597 216.86232973 -133.27927649 200.85730785 C-133.27832091 199.14675868 -133.27737779 197.43620951 -133.2764473 195.72566032 C-133.27598447 194.88415889 -133.27552164 194.04265746 -133.27504479 193.17565598 C-133.27246407 187.27048506 -133.27680647 181.36534293 -133.28388596 175.46017647 C-133.29234234 168.24807253 -133.28993547 161.03606642 -133.27404372 153.82397354 C-133.26621285 150.15007966 -133.26297932 146.47634822 -133.27299118 142.8024559 C-133.34311429 114.77414705 -133.34311429 114.77414705 -129.875 101.3125 C-129.68305243 100.4792196 -129.49110485 99.6459392 -129.29334068 98.78740788 C-126.68548428 87.86598423 -122.34219074 78.07314876 -116.875 68.3125 C-116.5459668 67.72452637 -116.21693359 67.13655273 -115.87792969 66.53076172 C-98.31803082 35.65650285 -69.22162386 13.54161259 -35.3125 3.5625 C-23.63284912 0.70961294 -11.9891227 -0.06177299 0 0 Z " fill="#7500FE" transform="translate(243.875,21.6875)"/>
    <!-- Eyes and mouth paths -->
    <path d="M0 0 C5.61360328 3.84932796 10.33998169 9.17442284 12.5078125 15.73046875 C14.01132881 24.40460132 13.24292931 32.87044684 8.19921875 40.19921875 C2.79434064 46.79919939 -2.17471426 50.21416377 -10.69140625 51.1875 C-20.14476772 51.56791696 -27.0015469 50.26356319 -34.1953125 43.984375 C-40.05299164 37.89531145 -42.22302268 31.57938811 -42.51171875 23.21875 C-42.22710929 15.04476644 -39.72729158 9.60120435 -34.171875 3.609375 C-24.11206143 -5.42707941 -11.69137419 -6.66857175 0 0 Z " fill="#020104" transform="translate(333.13671875,121.21875)"/>
    <path d="M0 0 C0.63035156 0.33902344 1.26070312 0.67804688 1.91015625 1.02734375 C7.69251789 4.59842863 11.58893244 10.57865497 13.64453125 17.01953125 C15.2166402 25.77842395 13.54685913 33.23162057 8.90234375 40.78515625 C5.18699031 45.70957387 -0.20862399 49.06954133 -6 51 C-15.86626705 51.6694575 -23.90313127 51.87244582 -31.88671875 45.4921875 C-37.46970627 40.45930567 -40.4856652 35.14379168 -41.4140625 27.6640625 C-41.79797603 18.34910796 -40.1893923 11.74041488 -33.98046875 4.71484375 C-23.89961219 -5.01291801 -12.21727249 -6.79235517 0 0 Z " fill="#030105" transform="translate(186,121)"/>
    <path d="M0 0 C7.5939817 5.31578719 12.31173216 12.4430381 14.1875 21.5 C15.22584972 32.11899924 14.75837967 42.11049374 8.3515625 51.06640625 C4.03837013 56.2141435 0.31280294 60.04996695 -6.60546875 60.8046875 C-12.99155771 61.07441051 -17.90823352 60.80177674 -22.8125 56.5 C-31.21210884 48.41603408 -33.87338485 40.4265255 -34.125 28.8125 C-34.00354973 18.32361317 -31.16325447 10.8501772 -23.8046875 3.31640625 C-17.54036337 -2.39518339 -7.80088286 -3.97103765 0 0 Z " fill="#000001" transform="translate(253.8125,174.5)"/>
    <path d="M0 0 C4.26025686 2.41102449 7.11701414 5.47731432 9 10 C9.46701578 14.20314201 9.30461183 16.42462209 7.3125 20.1875 C1.97809716 26.67528723 1.97809716 26.67528723 -2.33203125 27.3828125 C-8.02873704 27.63903615 -11.63065364 26.94306867 -16 23 C-19.16205748 19.31093294 -19.52383784 15.92109268 -19.3515625 11.21484375 C-18.63781767 6.71825132 -16.18632063 4.04675349 -12.875 1.125 C-8.52633911 -0.57664991 -4.59375359 -0.89442243 0 0 Z " fill="#F9F9F9" transform="translate(169,123)"/>
    <path d="M0 0 C4.40617281 2.16303029 7.1644597 4.41114924 9 9 C9.71062194 13.73747957 9.47089401 17.05821199 7.3125 21.375 C3.54719793 25.64912668 0.79702011 27.17577136 -4.875 27.5625 C-9.80027455 27.43734355 -12.2522575 25.88838917 -15.72265625 22.5078125 C-18.73613697 18.95061508 -18.38485731 15.25422569 -18.35546875 10.76953125 C-17.80112796 6.45054644 -16.18875479 4.89212643 -13 2 C-8.73999095 -0.84000604 -5.00058053 -0.63091437 0 0 Z " fill="#FAFAFA" transform="translate(315,123)"/>
    <path d="M0 0 C3.0625 0.3125 3.0625 0.3125 5 1.4375 C6.0625 3.3125 6.0625 3.3125 5.9375 6.375 C5.0625 9.3125 5.0625 9.3125 2.0625 11.3125 C-3.49305556 10.75694444 -3.49305556 10.75694444 -4.9375 9.3125 C-5.125 5.875 -5.125 5.875 -4.9375 2.3125 C-2.9375 0.3125 -2.9375 0.3125 0 0 Z " fill="#F0F0F0" transform="translate(323.9375,156.6875)"/>
    <path d="M0 0 C3.625 0.375 3.625 0.375 7 1 C8.33359073 7.42548263 8.33359073 7.42548263 6.875 9.9375 C4.33639987 11.37604008 2.87213496 11.50262362 0 11 C-1.875 9.3125 -1.875 9.3125 -3 7 C-2.75925978 3.62963689 -2.41201979 2.41201979 0 0 Z " fill="#F6F6F6" transform="translate(175,157)"/>
  </g>
  <!-- Allama text (white for dark mode) -->
  <text x="52" y="33" font-family="system-ui, -apple-system, BlinkMacSystemFont, 'Segoe UI', Roboto, sans-serif" font-size="26" font-weight="600" fill="white">Allama</text>
</svg>
